<svg width="309" height="195" viewBox="0 0 309 195" fill="none" xmlns="http://www.w3.org/2000/svg">
<g clip-path="url(#clip0)">
<path d="M23.3771 194.63C23.3771 194.63 -12.82 145.484 4.86963 94.8879C16.4005 61.909 59.6555 43.8373 84.0666 61.909C94.4631 69.6063 127.82 62.1688 145.63 30.3035C180.239 -31.6187 301.027 5.98752 279.036 101.059C268.395 147.067 311.423 148.739 289.499 194.728L23.3771 194.63Z" fill="#EBF3FA"/>
<path d="M166.119 194.16L166.026 194.157C165.26 194.141 164.67 193.444 164.742 192.642L169.847 135.782L174.301 136.226L166.971 193.392C166.914 193.838 166.547 194.169 166.119 194.16Z" fill="#ACC7EB"/>
<path d="M215.27 194.16L215.364 194.157C216.129 194.141 216.72 193.444 216.648 192.642L211.543 135.782L207.089 136.226L214.419 193.392C214.476 193.838 214.842 194.169 215.27 194.16Z" fill="#C8DBF4"/>
<path d="M130.108 194.16L130.015 194.157C129.249 194.141 128.659 193.444 128.731 192.642L133.836 135.782L138.29 136.226L130.96 193.392C130.903 193.838 130.536 194.169 130.108 194.16Z" fill="#BAD4F4"/>
<path d="M213.75 127.511L222.811 77.6038C223.974 70.8462 218.954 64.6678 212.435 64.8343L194.961 65.2793C188.933 65.4334 183.692 69.9327 182.016 76.3933L168.76 127.511H213.75Z" fill="#BAD4F4"/>
<path d="M208.268 127.511L217.328 77.6038C218.492 70.8462 213.472 64.6678 206.953 64.8343L189.479 65.2793C183.45 65.4334 178.21 69.9327 176.534 76.3933L163.278 127.511H208.268Z" fill="#ACC7EB"/>
<path d="M211.224 136.614H142.091C140.702 136.614 139.566 135.346 139.566 133.798V130.329C139.566 128.78 140.702 127.512 142.091 127.512H213.75V133.798C213.75 135.346 212.614 136.614 211.224 136.614Z" fill="#C8DBF4"/>
<path d="M178.781 136.614H134.709C133.591 136.614 132.675 135.592 132.675 134.344V129.781C132.675 128.533 133.591 127.511 134.709 127.511H178.781C179.9 127.511 180.816 128.531 180.816 129.781V134.344C180.816 135.592 179.9 136.614 178.781 136.614Z" fill="#ACC7EB"/>
<path d="M308.563 195H2.09156C1.85087 195 1.65475 194.781 1.65475 194.513V194.056C1.65475 193.787 1.85087 193.568 2.09156 193.568H308.563C308.804 193.568 309 193.787 309 194.056V194.513C309 194.78 308.803 195 308.563 195Z" fill="#2E3552"/>
<path d="M151.893 80.2809C150.919 79.391 172.149 59.4003 176.702 70.6087C176.702 70.6087 187.603 61.2398 177.566 55.7562C171.914 52.6688 171.104 46.1747 169.762 42.3516C168.423 38.5272 161.649 28.103 153.828 35.4311C153.828 35.4311 149.857 36.2154 147.72 39.1287C142.858 45.7558 132.05 90.0687 151.893 80.2809Z" fill="#163560"/>
<path d="M165.618 72.7242C165.618 72.7242 161.926 80.1281 156.75 86.2717C154.017 89.5169 150.868 92.4103 147.631 93.6719C146.052 94.2871 144.452 94.5158 142.868 94.2051C141.859 94.0087 142.298 87.3555 143.701 82.2994C145.55 75.6387 151.315 59.0884 151.315 59.0884L154.612 60.6569C154.612 60.6569 150.038 81.5015 150.583 81.5897L155.42 67.9353L165.618 72.7242Z" fill="#E5925A"/>
<path d="M172.665 106.498C172.665 106.498 135.907 105.846 131.003 109.326C126.099 112.805 135.905 168.361 135.905 168.361C135.905 168.361 145.412 168.699 146.168 165.893C146.168 165.893 144.457 139.86 145.954 135.363C147.45 130.867 146.528 124.635 146.528 124.635C146.528 124.635 165.122 127.799 171.027 126.242C176.932 124.683 172.665 106.498 172.665 106.498Z" fill="#F0866B"/>
<path d="M137.919 165.536C137.919 165.536 140.011 171.784 139.567 174.102C139.122 176.42 139.84 180.913 138.988 182.921C138.138 184.93 136.619 187.851 138.077 188.59C138.63 188.871 145.067 183.302 145.436 181.659C145.805 180.016 146.091 175.167 147.323 172.536C148.556 169.903 147.523 167.782 145.742 166.814C143.961 165.845 141.48 160.546 141.48 160.546L137.919 165.536Z" fill="#163560"/>
<path d="M131.676 175.231C131.676 175.231 129.66 181.51 127.98 182.961C126.3 184.412 124.248 188.362 122.436 189.284C120.625 190.206 117.774 191.345 118.461 192.959C118.72 193.572 126.86 193.948 128.092 192.959C129.324 191.97 132.347 188.472 134.811 187.347C137.275 186.223 137.714 183.859 136.912 181.838C136.111 179.817 137.281 173.981 137.281 173.981L131.676 175.231Z" fill="#2A4E96"/>
<path d="M193.508 105.039C193.508 105.039 149.888 112.653 146.528 116.982C143.167 121.311 129.857 177.704 129.857 177.704C129.857 177.704 133.74 180.134 137.282 177.885C137.282 177.885 147.416 158.773 151.893 152.778C156.37 146.782 158.088 128.232 158.825 128.044C159.563 127.856 183.036 131.206 191.684 124.822C196.78 121.059 193.508 105.039 193.508 105.039Z" fill="#F9957C"/>
<path d="M178.446 64.5048C175.872 62.3434 168.125 59.9571 163.28 62.3882C160.986 63.5403 157.505 65.0492 155.421 67.9364C153.172 71.0524 150.584 81.5909 150.584 81.5909C151.431 87.1416 155.386 87.8215 155.386 87.8215C153.07 97.5931 163.986 95.0402 163.28 100.458C162.05 109.913 169.979 114.878 174.302 117.082C179.958 119.966 195.854 123.601 195.871 117.082C195.947 87.384 185.846 70.7193 178.446 64.5048Z" fill="white"/>
<path d="M177.566 75.0396C177.566 75.0396 174.699 92.2971 166.933 97.3644H159.625L167.34 86.6096L177.566 75.0396Z" fill="#EBF3FA"/>
<path d="M151.573 60.8346C151.573 60.8346 149.2 57.6814 148.784 56.7269C148.369 55.7723 149.146 51.6583 150.115 51.6844C150.725 51.7019 151.476 54.1926 152.144 55.0987C152.811 56.0047 155.714 57.2936 154.486 61.1006C154.347 61.5294 151.573 60.8346 151.573 60.8346Z" fill="#E5925A"/>
<path d="M157.607 67.1398C156.938 68.2608 157.755 71.4004 161.55 70.4222C164.041 69.7809 168.896 65.2729 168.019 62.9723C167.603 61.8786 165.215 59.312 163.713 52.6389L163.278 52.8701L155.971 56.7566C155.971 56.7566 156.764 59.4077 157.35 61.9507C157.845 64.0847 157.885 66.6762 157.607 67.1398Z" fill="#FFB27D"/>
<path d="M155.973 56.7554C155.973 56.7554 156.765 59.4065 157.351 61.9495C161.625 60.591 162.901 55.5622 163.279 52.8689L155.973 56.7554Z" fill="#F4A269"/>
<path d="M151.813 58.2159C151.813 58.2159 162.056 60.867 163.437 53.7266C164.819 46.5861 167.071 42.1204 160.59 40.1256C154.109 38.132 152.308 40.5494 151.326 42.8065C150.345 45.0648 149.184 57.3421 151.813 58.2159Z" fill="#FFB27D"/>
<path d="M155.941 38.8292C155.941 38.8292 156.006 47.046 161.43 51.0344C164.605 53.3686 164.754 55.7562 164.754 55.7562C164.754 55.7562 166.634 48.7252 166.933 43.4366C166.933 43.4366 158.832 35.3504 155.941 38.8292Z" fill="#163560"/>
<path d="M156.587 40.2809C156.587 40.2809 153.559 41.4045 152.213 42.6474C150.218 44.4881 149.699 50.4751 149.936 51.9666C149.936 51.9666 149.393 41.5611 152.396 38.91C155.58 36.0986 156.587 40.2809 156.587 40.2809Z" fill="#163560"/>
<path d="M177.566 75.0409C176.523 77.8138 175.317 80.4201 174.038 82.7816C169.149 91.7951 163.173 97.2415 161.014 94.7022C160.416 94 158.91 92.9796 160.484 89.2062C161.701 86.2903 163.209 82.6449 164.686 79.0555C167.735 71.6565 170.659 64.5037 170.659 64.5037C171.592 64.5037 181.384 64.884 177.566 75.0409Z" fill="#FFB27D"/>
<path d="M167.34 86.6098C167.004 86.3861 148.576 91.3788 142.868 92.9324C141.821 93.217 141.201 93.3873 141.201 93.3873V95.7861C141.201 95.7861 160.27 96.7841 163.248 95.2591C166.226 93.7328 169.069 90.1831 169.069 90.1831L167.34 86.6098Z" fill="#FFB27D"/>
<path d="M177.566 75.0409C176.523 77.8138 175.317 80.4201 174.038 82.7816C170.056 82.2049 166.379 80.1305 164.688 79.0567C167.736 71.6577 170.66 64.5049 170.66 64.5049C171.592 64.5036 181.384 64.884 177.566 75.0409Z" fill="white"/>
<path d="M107.676 95.7884H128.147C128.147 94.7828 127.416 93.9688 126.516 93.9688H107.676V95.7884Z" fill="#480032"/>
<path d="M107.734 70.9207H76.0847L83.6765 95.7885H115.532L107.734 70.9207Z" fill="#480032"/>
<path d="M75.619 70.9207L83.2107 95.7885H115.065L107.269 70.9207H75.619Z" fill="#480032"/>
<path d="M92.6823 83.1247C92.8784 84.0743 93.7286 84.8449 94.5811 84.8449C95.4335 84.8449 95.9639 84.0743 95.7678 83.1247C95.5706 82.1751 94.7215 81.4045 93.869 81.4045C93.0166 81.4045 92.4862 82.1751 92.6823 83.1247Z" fill="white"/>
<path d="M225.851 136.548V137.995C225.851 138.502 225.998 138.916 226.177 138.916H273.528C273.708 138.916 273.855 138.502 273.855 137.995V136.548C273.855 136.042 273.708 135.627 273.528 135.627H226.177C225.998 135.628 225.851 136.042 225.851 136.548Z" fill="#9ABFE2"/>
<path d="M225.851 136.548V137.995C225.851 138.502 225.985 138.916 226.15 138.916H263.743C263.907 138.916 264.042 138.502 264.042 137.995V136.548C264.042 136.042 263.907 135.627 263.743 135.627H226.15C225.985 135.628 225.851 136.042 225.851 136.548Z" fill="#BAD4F4"/>
<path d="M237.836 193.568H271.452V138.917H237.836V193.568Z" fill="#C8DBF4"/>
<path d="M228.415 193.568H262.032V138.917H228.415V193.568Z" fill="#DFEBFD"/>
<path d="M230.221 140.461H260.225V190.552H230.221V140.461ZM259.9 140.822H230.545V190.19H259.9V140.822Z" fill="#B7D3F3"/>
<path d="M260.062 157.031H230.382V157.393H260.062V157.031Z" fill="#B7D3F3"/>
<path d="M260.062 173.924H230.382V174.286H260.062V173.924Z" fill="#B7D3F3"/>
<path d="M242.182 143.691H247.689C247.956 143.691 248.175 143.447 248.175 143.149C248.175 142.851 247.956 142.607 247.689 142.607H242.182C241.914 142.607 241.696 142.851 241.696 143.149C241.696 143.447 241.914 143.691 242.182 143.691Z" fill="#B7D3F3"/>
<path d="M242.182 160.21H247.689C247.956 160.21 248.175 159.967 248.175 159.668C248.175 159.37 247.956 159.126 247.689 159.126H242.182C241.914 159.126 241.696 159.37 241.696 159.668C241.696 159.967 241.914 160.21 242.182 160.21Z" fill="#B7D3F3"/>
<path d="M242.182 177.432H247.689C247.956 177.432 248.175 177.188 248.175 176.89C248.175 176.592 247.956 176.348 247.689 176.348H242.182C241.914 176.348 241.696 176.592 241.696 176.89C241.696 177.187 241.914 177.432 242.182 177.432Z" fill="#B7D3F3"/>
<path d="M218.751 42.8835H199.52C198.637 42.8835 197.914 42.0781 197.914 41.0925V20.3884C197.914 19.404 198.636 18.5974 199.52 18.5974H218.751C219.634 18.5974 220.357 19.4028 220.357 20.3884V41.0925C220.356 42.0781 219.634 42.8835 218.751 42.8835Z" fill="#C0D8FB"/>
<path d="M217.918 41.8321H200.352C199.545 41.8321 198.886 41.0963 198.886 40.1964V21.2858C198.886 20.3859 199.545 19.6501 200.352 19.6501H217.918C218.725 19.6501 219.384 20.3859 219.384 21.2858V40.1964C219.384 41.0963 218.725 41.8321 217.918 41.8321Z" fill="#DFEBFD"/>
<path d="M208.67 21.8675C208.67 21.5817 208.879 21.3492 209.135 21.3492C209.391 21.3492 209.6 21.5817 209.6 21.8675C209.6 22.1534 209.391 22.3858 209.135 22.3858C208.879 22.3858 208.67 22.1534 208.67 21.8675Z" fill="#B7D3F3"/>
<path d="M212.421 22.5997C212.546 22.3499 212.829 22.2591 213.053 22.3983C213.277 22.5375 213.358 22.8532 213.233 23.103C213.109 23.3529 212.825 23.4436 212.602 23.3044C212.378 23.1664 212.296 22.8507 212.421 22.5997Z" fill="#B7D3F3"/>
<path d="M215.635 25.4482C215.851 25.2929 216.138 25.3625 216.278 25.6024C216.417 25.8422 216.355 26.1641 216.139 26.3195C215.923 26.4749 215.636 26.4053 215.496 26.1654C215.357 25.9243 215.42 25.6036 215.635 25.4482Z" fill="#B7D3F3"/>
<path d="M217.227 29.8556C217.483 29.8556 217.692 30.088 217.692 30.3739C217.692 30.6597 217.483 30.8922 217.227 30.8922C216.971 30.8922 216.762 30.6597 216.762 30.3739C216.762 30.088 216.97 29.8556 217.227 29.8556Z" fill="#B7D3F3"/>
<path d="M216.414 34.9714C216.595 35.174 216.595 35.5021 216.414 35.7047C216.232 35.9073 215.938 35.9073 215.756 35.7047C215.574 35.5021 215.574 35.174 215.756 34.9714C215.938 34.7688 216.233 34.7688 216.414 34.9714Z" fill="#B7D3F3"/>
<path d="M213.495 38.2351C213.677 38.4377 213.677 38.7658 213.495 38.9684C213.314 39.171 213.019 39.171 212.838 38.9684C212.656 38.7658 212.656 38.4377 212.838 38.2351C213.019 38.0338 213.314 38.0338 213.495 38.2351Z" fill="#B7D3F3"/>
<path d="M208.67 39.9181C208.67 39.6322 208.879 39.3998 209.135 39.3998C209.391 39.3998 209.6 39.6322 209.6 39.9181C209.6 40.2039 209.391 40.4364 209.135 40.4364C208.879 40.4376 208.67 40.2052 208.67 39.9181Z" fill="#B7D3F3"/>
<path d="M205.834 22.5997C205.71 22.3499 205.427 22.2591 205.203 22.3983C204.979 22.5375 204.897 22.8532 205.022 23.103C205.147 23.3529 205.43 23.4436 205.654 23.3044C205.878 23.1664 205.958 22.8507 205.834 22.5997Z" fill="#B7D3F3"/>
<path d="M202.62 25.4485C202.403 25.2931 202.116 25.3627 201.977 25.6026C201.837 25.8437 201.9 26.1644 202.115 26.3197C202.331 26.4751 202.618 26.4055 202.758 26.1656C202.898 25.9245 202.836 25.6038 202.62 25.4485Z" fill="#B7D3F3"/>
<path d="M201.028 29.8556C200.772 29.8556 200.564 30.088 200.564 30.3739C200.564 30.6597 200.772 30.8922 201.028 30.8922C201.285 30.8922 201.493 30.6597 201.493 30.3739C201.493 30.088 201.285 29.8556 201.028 29.8556Z" fill="#B7D3F3"/>
<path d="M201.841 34.9714C201.659 35.174 201.659 35.5021 201.841 35.7047C202.022 35.9073 202.317 35.9073 202.498 35.7047C202.68 35.5021 202.68 35.174 202.498 34.9714C202.317 34.7688 202.022 34.7688 201.841 34.9714Z" fill="#B7D3F3"/>
<path d="M204.76 38.2352C204.578 38.4378 204.578 38.7659 204.76 38.9685C204.942 39.1711 205.236 39.1711 205.418 38.9685C205.599 38.7659 205.599 38.4378 205.418 38.2352C205.236 38.0326 204.942 38.0339 204.76 38.2352Z" fill="#B7D3F3"/>
<path d="M209.01 30.374C209.01 30.0881 209.218 29.8557 209.475 29.8557C209.731 29.8557 209.939 30.0881 209.939 30.374C209.939 30.6599 209.731 30.8923 209.475 30.8923C209.217 30.8935 209.01 30.6611 209.01 30.374Z" fill="#B7D3F3"/>
<path d="M209.538 23.896H209.411V30.3739H209.538V23.896Z" fill="#B7D3F3"/>
<path d="M212.386 27.5071L209.306 30.2032L209.542 30.5376L212.621 27.8414L212.386 27.5071Z" fill="#B7D3F3"/>
<path d="M60.7073 155.293C60.7073 155.293 66.2176 148.123 61.0472 143.569C61.0472 143.569 57.2708 141.019 54.1909 141.226C54.1909 141.226 58.5545 149.387 57.1427 150.199C55.7309 151.01 52.8682 140.714 52.8682 140.714C52.8682 140.714 44.2736 139.784 41.509 141.267C41.509 141.267 48.8556 147.973 47.309 148.373C45.7612 148.772 37.8262 142.189 37.8262 142.189C37.8262 142.189 29.8277 143.708 30.2545 149.15C30.6813 154.592 33.437 156.273 34.6482 156.128C35.8595 155.984 42.9453 152.966 43.1002 154.074C43.2551 155.181 38.9896 158.799 36.0021 158.968C36.0021 158.968 41.6416 165.905 45.389 163.904C49.1364 161.902 49.4573 158.729 51.7929 157.538C54.1296 156.347 56.1231 156.351 55.1592 157.564C54.1942 158.778 49.9666 159.958 48.6305 162.594C47.2945 165.23 46.0955 167.007 49.9733 166.357C53.851 165.706 60.1535 162.542 60.431 158.917C60.7073 155.293 60.7073 155.293 60.7073 155.293Z" fill="#C8DBF4"/>
<path d="M34.1836 149.296C34.1836 149.296 55.9092 148.363 60.7062 155.293C60.7062 155.293 61.767 158.838 65.032 162.066L65.5412 163.613C65.5412 163.613 61.7771 159.186 60.4299 158.917C60.4299 158.917 62.537 150.332 34.1836 149.296Z" fill="#C8DBF4"/>
<path d="M65.033 162.066C65.033 162.066 69.6964 165.912 70.0196 172.786L69.1727 172.87C69.1727 172.87 67.6829 165.763 64.9918 162.984C62.3008 160.204 65.033 162.066 65.033 162.066Z" fill="#C8DBF4"/>
<path d="M79.9715 146.276C79.9715 146.276 71.2063 140.801 75.2969 133.371C75.2969 133.371 78.5697 128.808 82.0753 127.635C82.0753 127.635 80.2055 138.716 82.0753 138.975C83.9451 139.236 83.3612 126.462 83.3612 126.462C83.3612 126.462 92.5932 121.509 96.2169 121.899C96.2169 121.899 90.4905 132.719 92.3603 132.458C94.2301 132.197 100.657 121.247 100.657 121.247C100.657 121.247 110.123 119.292 111.643 125.548C113.162 131.805 110.708 134.933 109.306 135.325C107.903 135.716 98.9046 135.586 99.1386 136.89C99.3726 138.194 105.449 140.279 108.839 139.106C108.839 139.106 105.099 149.403 100.191 148.882C95.282 148.36 93.7632 144.972 90.7245 144.711C87.6858 144.45 85.465 145.363 86.9849 146.276C88.5037 147.188 93.6462 146.576 96.101 148.902C98.5547 151.229 100.542 152.663 95.984 153.706C91.4265 154.749 83.2453 154.098 81.6095 150.186C79.9715 146.276 79.9715 146.276 79.9715 146.276Z" fill="#C8DBF4"/>
<path d="M107.319 127.505C107.319 127.505 82.7773 136.369 79.9714 146.275C79.9714 146.275 80.0884 150.707 77.6336 155.79V157.745C77.6336 157.745 80.2043 151.097 81.6072 150.185C81.6084 150.186 76.1148 141.583 107.319 127.505Z" fill="#C8DBF4"/>
<path d="M77.6348 155.792C77.6348 155.792 73.8495 162.203 76.0079 170.005L76.9818 169.713C76.9818 169.713 76.0368 161.119 78.017 156.796C79.996 152.473 77.6348 155.792 77.6348 155.792Z" fill="#C8DBF4"/>
<path d="M66.027 138.726C66.027 138.726 77.5812 131.509 72.1891 121.714C72.1891 121.714 67.8756 115.7 63.2546 114.154C63.2546 114.154 65.7195 128.759 63.2546 129.103C60.7898 129.447 61.5598 112.607 61.5598 112.607C61.5598 112.607 49.3893 106.077 44.6146 106.593C44.6146 106.593 52.1629 120.855 49.698 120.511C47.2332 120.167 38.76 105.734 38.76 105.734C38.76 105.734 26.282 103.156 24.2796 111.404C22.2772 119.652 25.512 123.776 27.3607 124.292C29.2093 124.808 41.0711 124.636 40.7635 126.354C40.456 128.071 32.4452 130.821 27.9769 129.275C27.9769 129.275 32.9066 142.849 39.3762 142.162C45.8459 141.475 47.8494 137.007 51.8542 136.664C55.859 136.321 58.7863 137.522 56.7839 138.726C54.7815 139.929 48.0032 139.12 44.7683 142.187C41.5335 145.254 38.9138 147.145 44.9221 148.52C50.9304 149.894 61.7136 149.035 63.8708 143.88C66.027 138.726 66.027 138.726 66.027 138.726Z" fill="#D4E4F8"/>
<path d="M29.9793 113.982C29.9793 113.982 62.3298 125.666 66.027 138.725C66.027 138.725 65.8732 144.567 69.1081 151.269V153.847C69.1081 153.847 65.7195 145.083 63.8708 143.881C63.8708 143.88 71.1116 132.54 29.9793 113.982Z" fill="#D4E4F8"/>
<path d="M69.1081 151.269C69.1081 151.269 74.0968 159.719 71.2531 170.005L69.9694 169.621C69.9694 169.621 71.2152 158.291 68.6055 152.594C65.9947 146.895 69.1081 151.269 69.1081 151.269Z" fill="#D4E4F8"/>
<path d="M66.417 192.313C53.9179 192.313 43.7844 181.011 43.7844 167.069H89.0486C89.0486 181.01 78.9162 192.313 66.417 192.313Z" fill="#D4E4F8"/>
<path d="M43.4724 193.597H89.3617C89.3617 191.876 88.1114 190.482 86.5692 190.482H46.2637C44.7215 190.482 43.4724 191.876 43.4724 193.597Z" fill="#D4E4F8"/>
<path d="M43.2699 167.843H89.7933V167.069H43.2699V167.843Z" fill="#9FC1F4"/>
<path d="M75.4674 101.384H181.984C183.039 101.384 183.894 100.431 183.894 99.2537V97.9189C183.894 96.7419 183.039 95.7886 181.984 95.7886H75.4674C74.4122 95.7886 73.5575 96.7419 73.5575 97.9189V99.2537C73.5575 100.43 74.4122 101.384 75.4674 101.384Z" fill="#2A4E96"/>
<path d="M76.8124 193.542L76.7533 193.533C76.0424 193.435 75.5398 192.728 75.629 191.954L86.45 98.585L92.514 98.7789L77.9713 192.602C77.8788 193.205 77.3673 193.619 76.8124 193.542Z" fill="#2A4E96"/>
<path d="M182.378 193.542L182.437 193.533C183.148 193.435 183.651 192.728 183.562 191.954L172.741 98.585L166.677 98.7789L181.219 192.602C181.313 193.205 181.824 193.619 182.378 193.542Z" fill="#2A4E96"/>
<path d="M248.737 112.616L247.485 112.841L249.855 129.299L251.107 129.074L248.737 112.616Z" fill="#B9595A"/>
<path d="M247.705 109.838L247.497 112.847L248.749 112.623L247.705 109.838Z" fill="#EFCBAB"/>
<path d="M262.32 114.276L261.074 114.017L258.343 130.407L259.59 130.665L262.32 114.276Z" fill="#B9595A"/>
<path d="M262.169 111.258L261.066 114.013L262.312 114.272L262.169 111.258Z" fill="#EFCBAB"/>
<path d="M260.736 109.463L259.489 109.204L256.76 125.594L258.007 125.852L260.736 109.463Z" fill="#B9595A"/>
<path d="M260.589 106.45L259.485 109.207L260.732 109.464L260.589 106.45Z" fill="#EFCBAB"/>
<path d="M262.178 119.573H252.191V135.628H262.178V119.573Z" fill="#B9595A"/>
<path d="M257.184 119.573H247.196V135.628H257.184V119.573Z" fill="#F0866B"/>
<path d="M243.569 189.375C243.464 189.616 243.23 190.915 242.815 191.987V191.988C242.564 192.634 242.25 193.195 241.859 193.398C240.816 193.94 239.063 193.011 239.063 193.011C239.063 193.011 236.059 193.398 235.767 193.244C235.475 193.088 235.183 188.06 235.183 188.06C235.183 188.06 237.52 185.351 237.728 185.274C237.936 185.197 239.648 186.203 239.94 186.203C240.232 186.203 241.942 184.957 242.401 185.269C242.86 185.584 243.736 188.988 243.569 189.375Z" fill="white"/>
<path d="M239.939 186.203C239.939 186.203 239.417 187.518 239.271 187.635C239.125 187.751 237.727 185.274 237.727 185.274C237.936 185.196 239.647 186.203 239.939 186.203Z" fill="#F2F7FE"/>
<path d="M242.367 186.577C242.367 186.577 240.232 188.782 240.26 188.988C240.288 189.194 242.569 190.665 242.652 190.613C242.736 190.562 242.165 188.885 242.193 188.6C242.221 188.317 242.367 186.577 242.367 186.577Z" fill="#F2F7FE"/>
<path d="M243.569 189.375C243.464 189.616 243.23 190.915 242.815 191.987V191.988H242.814L243.068 189.529L242.4 185.268C242.86 185.584 243.736 188.988 243.569 189.375Z" fill="#F2F7FE"/>
<path d="M239.063 193.012C239.063 193.012 236.059 193.398 235.767 193.244C235.475 193.089 235.183 188.06 235.183 188.06C235.183 188.06 235.836 190.64 235.85 190.768C235.865 190.896 236.79 190.615 236.79 190.615L239.063 193.012Z" fill="#F2F7FE"/>
<path d="M235.964 188.06L236.298 189.393H236.987L236.476 188.833L235.964 188.06Z" fill="#F2F7FE"/>
<path d="M113.324 189.375C113.219 189.616 112.985 190.915 112.569 191.987V191.988C112.319 192.634 112.004 193.195 111.613 193.398C110.57 193.94 108.817 193.011 108.817 193.011C108.817 193.011 105.813 193.398 105.521 193.244C105.229 193.088 104.937 188.06 104.937 188.06C104.937 188.06 107.274 185.351 107.482 185.274C107.691 185.197 109.402 186.203 109.694 186.203C109.986 186.203 111.698 184.957 112.157 185.269C112.615 185.584 113.491 188.988 113.324 189.375Z" fill="white"/>
<path d="M109.693 186.203C109.693 186.203 109.172 187.518 109.026 187.635C108.88 187.75 107.481 185.274 107.481 185.274C107.691 185.196 109.401 186.203 109.693 186.203Z" fill="#F2F7FE"/>
<path d="M112.121 186.577C112.121 186.577 109.986 188.782 110.014 188.988C110.042 189.194 112.323 190.665 112.407 190.613C112.49 190.562 111.92 188.885 111.947 188.6C111.975 188.317 112.121 186.577 112.121 186.577Z" fill="#F2F7FE"/>
<path d="M113.324 189.375C113.219 189.616 112.985 190.915 112.569 191.987V191.988H112.568L112.822 189.529L112.155 185.268C112.615 185.584 113.491 188.988 113.324 189.375Z" fill="#F2F7FE"/>
<path d="M108.817 193.012C108.817 193.012 105.813 193.398 105.521 193.244C105.229 193.089 104.937 188.06 104.937 188.06C104.937 188.06 105.59 190.64 105.605 190.768C105.619 190.896 106.544 190.615 106.544 190.615L108.817 193.012Z" fill="#F2F7FE"/>
<path d="M105.719 188.06L106.053 189.393H106.741L106.23 188.833L105.719 188.06Z" fill="#F2F7FE"/>
<path d="M252.967 131.296C252.874 131.548 252.701 132.88 252.333 133.996V133.998C252.111 134.669 251.821 135.259 251.433 135.489C250.401 136.104 248.574 135.272 248.574 135.272C248.574 135.272 245.542 135.853 245.237 135.714C244.933 135.575 244.383 130.485 244.383 130.485C244.383 130.485 246.619 127.588 246.827 127.497C247.036 127.405 248.823 128.32 249.121 128.301C249.417 128.283 251.092 126.911 251.574 127.199C252.056 127.49 253.118 130.893 252.967 131.296Z" fill="white"/>
<path d="M249.121 128.301C249.121 128.301 248.657 129.67 248.514 129.797C248.372 129.923 246.827 127.497 246.827 127.497C247.036 127.405 248.824 128.32 249.121 128.301Z" fill="#F2F7FE"/>
<path d="M251.604 128.529C251.604 128.529 249.547 130.903 249.585 131.11C249.624 131.318 252.014 132.668 252.097 132.61C252.179 132.553 251.515 130.885 251.53 130.596C251.544 130.306 251.604 128.529 251.604 128.529Z" fill="#F2F7FE"/>
<path d="M252.967 131.296C252.874 131.548 252.701 132.88 252.333 133.996V133.998H252.332L252.467 131.484L251.574 127.2C252.056 127.49 253.118 130.893 252.967 131.296Z" fill="#F2F7FE"/>
<path d="M248.574 135.271C248.574 135.271 245.542 135.853 245.237 135.714C244.933 135.575 244.383 130.485 244.383 130.485C244.383 130.485 245.176 133.064 245.197 133.193C245.218 133.323 246.143 132.978 246.143 132.978L248.574 135.271Z" fill="#F2F7FE"/>
<path d="M245.178 130.437L245.584 131.77L246.284 131.728L245.735 131.191L245.178 130.437Z" fill="#F2F7FE"/>
<path d="M235.827 132.456C235.755 132.628 235.62 133.531 235.335 134.29V134.291C235.162 134.747 234.936 135.15 234.636 135.311C233.835 135.74 232.419 135.201 232.419 135.201C232.419 135.201 230.066 135.632 229.831 135.542C229.595 135.453 229.17 132.019 229.17 132.019C229.17 132.019 230.907 130.031 231.068 129.967C231.23 129.902 232.616 130.498 232.847 130.481C233.077 130.465 234.377 129.516 234.75 129.705C235.121 129.895 235.943 132.182 235.827 132.456Z" fill="white"/>
<path d="M232.843 130.482C232.843 130.482 232.483 131.412 232.373 131.501C232.262 131.589 231.064 129.968 231.064 129.968C231.226 129.902 232.612 130.498 232.843 130.482Z" fill="#C4D9E8"/>
<path d="M234.77 130.603C234.77 130.603 233.173 132.234 233.203 132.374C233.233 132.515 235.087 133.396 235.151 133.356C235.214 133.316 234.701 132.198 234.712 132.002C234.722 131.805 234.77 130.603 234.77 130.603Z" fill="#DFEBF5"/>
<path d="M235.826 132.456C235.753 132.628 235.619 133.531 235.333 134.29V134.291H235.332L235.437 132.591L234.746 129.706C235.119 129.895 235.942 132.182 235.826 132.456Z" fill="#C4D9E8"/>
<path d="M232.416 135.199C232.416 135.199 230.064 135.631 229.829 135.541C229.592 135.452 229.168 132.018 229.168 132.018C229.168 132.018 229.783 133.75 229.799 133.838C229.815 133.925 230.532 133.682 230.532 133.682L232.416 135.199Z" fill="#DFEBF5"/>
<path d="M229.784 131.975L230.098 132.871L230.641 132.833L230.216 132.477L229.784 131.975Z" fill="#DFEBF5"/>
<path d="M142.868 92.9324C142.868 92.9324 136.798 90.9872 135.108 91.5241C133.916 91.9032 132.394 93.8695 131.601 94.9956C131.369 95.3237 131.582 95.8047 131.957 95.801C132.973 95.7898 134.616 95.7152 135.476 95.2106C136.287 94.7358 137.495 95.7823 138.84 95.7885C139.873 95.7935 141.201 95.7848 141.201 95.7848L142.868 92.9324Z" fill="#FFB27D"/>
</g>
<defs>
<clipPath id="clip0">
<rect width="309" height="195" fill="white"/>
</clipPath>
</defs>
</svg>
